<?xml version="1.0" encoding="utf-8"?>
<svg version="1.1" id="레이어_1" xmlns="http://www.w3.org/2000/svg" xmlns:xlink="http://www.w3.org/1999/xlink" x="0px"
	 y="0px" viewBox="0 0 300 257" style="enable-background:new 0 0 300 257;" xml:space="preserve">
<style type="text/css">
	.st0{fill:#D32F2F;}
</style>
<g>
	<path class="st0" d="M279.65,145.59C261.06,174.73,204.45,233.15,150,257C95.55,233.15,38.94,174.73,20.35,145.59
		C6.41,123.73-1.26,100.47,0.17,74.61c1.25-22.47,12.64-44.19,30.46-58.02C48.45,2.77,72.39-2.92,94.55,1.44
		c23.64,4.64,44.64,20.82,55.46,42.22c10.82-21.4,31.81-37.58,55.46-42.22c22.15-4.36,46.09,1.33,63.91,15.15
		c17.82,13.83,29.21,35.55,30.46,58.02C301.26,100.47,293.59,123.73,279.65,145.59z"/>
</g>
</svg>
