<?xml version="1.0" encoding="utf-8"?>
<!-- Generator: Adobe Illustrator 28.1.0, SVG Export Plug-In . SVG Version: 6.00 Build 0)  -->
<svg version="1.1" id="레이어_1" xmlns="http://www.w3.org/2000/svg" xmlns:xlink="http://www.w3.org/1999/xlink" x="0px"
	 y="0px" viewBox="0 0 260 335.91" style="enable-background:new 0 0 260 335.91;" xml:space="preserve">
<g>
	<path d="M212.83,136.96c-18.47,3.85-36.26,9.49-52.75,19.13c-29.88,17.47-53.59,41.37-73.27,69.47
		c-6.34,9.04-15.58,14.49-23.25,21.85c-0.31-0.29-0.62-0.59-0.92-0.88c7.47-9.94,14.45-20.31,22.53-29.73
		c12.24-14.26,23.04-29.21,29.06-47.23c0.3-0.91,0.87-1.79,1.51-2.51c10.6-11.91,21.64-23.41,34.44-32.98
		c14.54-10.87,28.76-22.04,41.03-35.58c19.96-22.02,38.61-44.82,49.84-72.89c2.57-6.42,6.82-12.23,10.82-17.96
		C253.89,4.77,257.07,2.7,260,0c-11.28,1.23-20.21,6.67-29.01,12.67c-15.57,10.61-31.39,20.85-47.02,31.38
		c-8.87,5.98-18.34,11.36-26.22,18.47c-28.7,25.88-40.93,59.77-45.22,97.22c-0.43,3.78-0.16,7.87-1.56,11.26
		c-7.2,17.37-18.17,32.32-30.93,46.1c1.62-6.15,3.26-12.29,5.34-18.28c5.76-16.57,8.48-33.59,5.56-50.93
		c-1.83-10.85-5.24-21.46-8.44-32.02c-3.36-11.11-6.96-22.1-6.27-33.93c0.08-1.33,0.01-2.68,0.01-4.01
		c-0.32-0.14-0.63-0.28-0.95-0.42c-3.08,4.27-6.56,8.31-9.15,12.87c-6.15,10.8-9.47,22.69-11.75,34.82
		c-2.47,13.14-4.37,26.57-0.84,39.65c2.73,10.14,7.38,19.75,11.15,29.61c3.02,7.91,6.23,15.75,8.87,23.79
		c0.84,2.55,1.17,6.34-0.13,8.34c-4.7,7.22-10,14.08-15.45,20.77c-5.75,7.07-12.65,12.93-21.32,18.27c2.7-6.2,5.02-11.44,7.27-16.71
		c6.33-14.88,8.58-30.14,5.1-46.21c-2.64-12.19-7.21-24.2-4.92-37.36c-2.58,1.93-5.41,3.76-6.94,6.36
		c-3.91,6.65-7.89,13.4-10.65,20.57c-4.46,11.57-7.28,23.74-4.82,36.19c1.95,9.87,4.85,19.57,7.78,29.21
		c1.81,5.96,1.95,10.93-4.12,14.42c-0.73,0.42-1.25,1.18-1.88,1.77c-17.13,16.04-24.3,36.05-23.4,59.24
		c0.04,0.96,0.73,1.89,1.12,2.83c0.63-0.87,1.64-1.66,1.83-2.61c0.85-4.22,1.6-8.48,2.13-12.75c2.12-16.95,9.14-31.39,22.01-42.68
		c2.38-2.09,5.54-3.65,8.61-4.5c6.38-1.75,12.9-3.09,19.43-4.19c13.14-2.22,26.42-4,39.63-1.11c12.33,2.69,24.53,6.04,36.73,9.3
		c11.25,3.01,22.63,5.09,34.28,3.84c15.31-1.65,29.78-8.44,45.94-7.77c-0.69-1.24-1.84-1.74-2.66-2.58
		c-11.73-12.13-25.85-20.25-41.67-25.82c-9.77-3.44-19.45-6.84-29.92-7.35c-19.65-0.96-38.37,3.36-56.64,10.04
		c-8.13,2.97-16.1,6.41-24.24,9.67c5.55-5.05,11.21-9.8,16.4-15.03c6.6-6.63,14.56-10.88,23.06-14.28c5.01-2,10.1-3.97,15.34-5.16
		c17.35-3.93,34.81-7.42,52.19-11.24c28.15-6.19,51.38-20.35,68.33-43.89c9.19-12.76,17.54-26.13,26.21-39.14
		c-0.68,0.03-1.88-0.05-3.03,0.17C241.05,131.5,226.9,134.03,212.83,136.96z M206.74,74.8c13-19.63,21.82-41.84,37.03-60.13
		C233.43,35.95,223.39,57.42,206.74,74.8z M245.33,9.48c-3.68,4.76-7.7,9.31-10.97,14.34c-5.49,8.47-11,17-15.61,25.96
		c-14.06,27.35-34.06,49.81-56.73,70.05c-11.12,9.93-22.8,19.24-34.22,28.83c-0.26-0.2-0.53-0.4-0.79-0.6
		c4.89-5.94,9.54-12.09,14.72-17.76c12.24-13.39,25.33-26.04,36.97-39.93c14.88-17.75,28.55-36.52,42.97-54.67
		c6.59-8.29,13.72-16.14,20.64-24.15C243.09,10.66,244.16,10,245.33,9.48z M233.89,16.22c0.71-0.73,1.66-1.21,2.8-1.45
		c-4.4,5.37-8.93,10.65-13.19,16.14c-11.57,14.9-22.58,30.25-34.67,44.72c-10.58,12.67-22.23,24.46-33.57,36.48
		c-12.28,13.02-24.24,26.29-34.29,41.17c-0.19,0.29-0.36,0.6-0.53,0.9c-0.4-0.25-0.79-0.49-1.19-0.74
		c4.54-8.5,8.82-17.15,13.7-25.45c6.49-11.04,14.92-20.62,24.51-29c19.91-17.39,36.25-37.93,52.84-58.32
		C217.42,31.9,225.96,24.31,233.89,16.22z M194.07,42.18c11.32-8.63,23.07-16.7,34.63-25.02c0.24,0.24,0.47,0.47,0.71,0.71
		c-18.96,16.09-32.24,37.21-49.03,55.2c-7.4,7.93-15.29,15.42-23.27,22.76c-13.37,12.3-24.78,26.05-32.94,42.38
		c-0.21,0.42-0.53,0.8-1.28,1.07c0.15-0.8,0.25-1.61,0.45-2.4c5.7-21.99,17.41-40.63,32.22-57.47
		C167.4,65.99,179.8,53.06,194.07,42.18z M179.94,51.38c-15.22,14.37-29.14,28.54-40.61,44.95c-11.61,16.61-17.64,35.49-22.67,54.82
		C116.65,118.53,151.19,63.61,179.94,51.38z M74.75,94.23c0.02,0.48,0.03,0.96,0.04,1.44c4.07,14.54,8.46,29,12.05,43.66
		c4.35,17.76,4.36,35.64-0.8,53.34c-0.13,0.45-0.26,0.9-0.76,1.29c0.45-4.1,0.77-8.22,1.37-12.3c1.93-13.1-0.93-25.78-3.31-38.49
		c-2.71-14.51-5.57-28.98-8.29-43.49c-0.25-1.31-0.25-2.67-0.26-4.02c-0.12-0.42-0.24-0.85-0.36-1.27
		C74.54,94.34,74.65,94.29,74.75,94.23z M73.39,101.59c2.94,15.16,5.92,30.31,8.81,45.48c2.06,10.78,4.25,21.57,2.95,32.65
		c-0.67,5.7-1.5,11.37-2.19,16.55c-3.41-31.28-6.86-62.95-10.32-94.61C72.89,101.63,73.14,101.61,73.39,101.59z M70.3,96.06
		c0.06-2.42,0.52-4.84,0.79-7.25c-0.4,25.81,4.11,51.14,6.61,76.62c0.7,7.1,1.94,14.15,2.75,21.25c1.05,9.18-0.58,18.11-3.39,26.96
		c0-1.35,0.01-2.71,0-4.06c-0.01-1.48,0.09-2.98-0.06-4.44c-1.54-15.44-3.14-30.87-4.69-46.3c-0.93-9.31-2.31-18.62-2.57-27.95
		C69.42,119.29,70.01,107.67,70.3,96.06z M58.5,119.73c-0.29,4.36-0.3,7.92-0.8,11.41c-2.46,17.44,0.65,33.99,7.21,50.15
		c2.1,5.18,3.33,10.71,4.96,16.08C55.09,173.4,51.44,147.73,58.5,119.73z M64.19,174.95c-3.82-10.85-6.38-21.76-5.65-33.27
		c1.02-16.12,2.42-32.2,8.73-47.36c0.54-1.3,1.19-2.56,2.22-4.77c-0.69,11.94-1.35,22.77-1.93,33.6c-0.81,15.14,1.77,30,3.91,44.89
		c2.17,15.12,4.61,30.22,4.09,43.72C72.15,200.56,68.64,187.59,64.19,174.95z M44.65,241.38c3.64-16.71-1.2-33.07-1.52-49.58
		C47.51,208.22,49.56,224.72,44.65,241.38z M40.52,182.17c0.07-0.01,0.13-0.02,0.2-0.03c1.25,15.79,2.88,31.57,3.57,47.38
		c0.27,6.07-1.6,12.23-2.49,18.35c-0.42-0.04-0.85-0.08-1.27-0.12C40.52,225.89,40.52,204.03,40.52,182.17z M30.25,249.7
		c-2.01-9.45-4.01-18.9-6.02-28.35c0.42-0.06,0.84-0.11,1.25-0.17c2.01,9.42,4.03,18.84,6.04,28.26
		C31.11,249.53,30.68,249.61,30.25,249.7z M34.84,260.09C32.3,247.97,29,235.95,27.5,223.7c-0.93-7.63,0.38-15.66,1.57-23.37
		c0.95-6.14,3.14-12.09,4.99-18.07c0.71-2.3,1.99-4.42,3.13-6.88c-1.05,14.43-2.63,28.47-2.92,42.53
		c-0.29,14.14,0.72,28.3,1.16,42.45C35.23,260.27,35.04,260.18,34.84,260.09z M35.71,217.89c0.19-13.45,1.54-26.88,2.38-40.31
		c0.51,0.03,1.02,0.06,1.53,0.09c-3.18,26.87,2.77,54-2.7,80.78C36.47,244.92,35.51,231.4,35.71,217.89z M101.49,245.05
		c10.17-2.2,20.49-4.01,30.85-4.99c14.72-1.39,28.36,3.48,41.67,9.16c7.11,3.03,14.43,5.72,20.26,11.12
		c0.49,0.45,0.98,0.91,1.29,1.2c-38.73-16.65-78.47-20.44-119.38-8.24c-0.07-0.31-0.13-0.62-0.2-0.93
		C84.48,249.88,92.87,246.91,101.49,245.05z M204.33,270.07c-13.93-4.02-27.4-8.12-40.98-11.78c-19.12-5.16-38.62-8.17-58.36-5.51
		c-13.93,1.88-27.65,5.37-41.46,8.15c-0.78,0.16-1.56,0.33-3.38,0.72C101.62,240.99,168.97,243.38,204.33,270.07z M78.76,258.62
		c17.54-4.27,35.35-6.31,53.4-4.55c16.55,1.61,32.56,5.9,48.47,10.56c6.91,2.02,13.81,4.11,21.4,6.37
		c-12.37,2.3-23.97,4.89-35.7,6.5c-11.23,1.54-22.26-0.9-33.13-3.73c-11.14-2.9-22.22-6.13-33.47-8.54
		c-15.19-3.26-30.33-1.52-45.33,1.84c-0.92,0.21-1.88,0.25-2.82,0.37c-0.08-0.33-0.16-0.65-0.25-0.98
		C60.47,263.81,69.53,260.86,78.76,258.62z M235.38,135.22c-49.24,15.49-95.17,36.88-131.9,74.54
		C137.91,168.15,181.45,142.56,235.38,135.22z M242.38,134.2c-21.65,14.32-44.48,27.23-68.76,37.55
		c-22.64,9.62-43.42,22.56-63.15,37.21c-1.34,0.99-2.68,1.99-4.01,2.98C143.64,171.41,192.02,150.63,242.38,134.2z M102.81,217.04
		c4.79-3.52,9.55-7.09,14.37-10.56c19.54-14.06,40.36-25.88,62.44-35.43c18.2-7.87,35.67-17.06,52.18-28.1
		c5.15-3.45,10.7-6.3,16.07-9.42c0.18,0.3,0.37,0.6,0.55,0.9c-17.63,14.98-33.92,31.58-53.8,43.83
		c-12.03,7.41-25.41,11.65-38.33,16.99c-17.46,7.21-34.76,14.8-52.14,22.21C103.85,217.58,103.48,217.54,102.81,217.04z
		 M228.74,167.52c-18.24,23.36-42.77,36.56-71.04,43.37c-17.25,4.16-34.63,7.8-51.95,11.67c-0.08-0.28-0.16-0.55-0.24-0.83
		c11.96-3.58,23.88-7.26,35.88-10.7c16.28-4.66,32.63-9.11,47.71-17.12c19.03-10.1,34.24-24.77,48.47-40.63
		c0.82-0.91,1.63-1.82,3.11-2.25C236.71,156.53,232.92,162.18,228.74,167.52z M183.27,194.75c-15.48,6.86-31.69,11.15-47.91,15.56
		c-8.49,2.31-16.91,4.85-25.63,6.73c4.65-2.27,9.19-4.8,13.96-6.76c12.95-5.3,25.78-11.01,39.05-15.37
		c25.58-8.42,47.35-22.67,66.61-41.2c6.93-6.67,14.07-13.14,21.14-19.67c1.31-1.21,2.79-2.24,4.19-3.35
		c0.23,0.23,0.46,0.46,0.7,0.69C233.91,155.41,214,181.14,183.27,194.75z"/>
</g>
</svg>
