<?xml version="1.0" encoding="utf-8"?>
<!-- Generator: Adobe Illustrator 26.0.1, SVG Export Plug-In . SVG Version: 6.00 Build 0)  -->
<svg version="1.1" id="Layer_1" xmlns="http://www.w3.org/2000/svg" xmlns:xlink="http://www.w3.org/1999/xlink" x="0px" y="0px"
	 viewBox="0 0 800 800" style="enable-background:new 0 0 800 800;" xml:space="preserve">
<g>
	<path d="M494,120.9c19.1,12.3,28.7,21.9,41,41c1.3,2.1,3.6,3.3,6.1,3.3s4.8-1.2,6.1-3.3c12.3-19.1,21.9-28.7,41-41
		c2.1-1.3,3.3-3.6,3.3-6.1c0-2.5-1.2-4.8-3.3-6.1l0,0c-19.1-12.3-28.7-21.9-41-41c-1.3-2.1-3.6-3.3-6.1-3.3s-4.8,1.2-6.1,3.3
		c-12.3,19.1-21.9,28.7-41,41c-2.1,1.3-3.3,3.6-3.3,6.1S492,119.6,494,120.9z M516.1,110.9c8.2-6.4,14.7-12.9,21.1-21.1l3.9-5l3.9,5
		c6.4,8.2,12.9,14.7,21.1,21.1l5,3.9l-5,3.9c-8.2,6.4-14.7,12.9-21.1,21.1l-3.9,5l-3.9-5c-6.4-8.2-12.9-14.7-21.1-21.1l-5-3.9
		L516.1,110.9z"/>
	<path d="M439,207.2c1.4,1.4,3.2,2.1,5.1,2.1c1.9,0,3.8-0.8,5.1-2.1l29.4-29.4c1.4-1.4,2.1-3.2,2.1-5.1c0-1.9-0.8-3.8-2.1-5.1
		l-29.4-29.4c-1.4-1.4-3.2-2.1-5.1-2.1c-1.9,0-3.8,0.8-5.1,2.1l-29.4,29.4c-1.4,1.4-2.1,3.2-2.1,5.1c0,1.9,0.8,3.8,2.1,5.1
		L439,207.2z M444.1,153.6l19.1,19.1l-19.1,19.1l-19.1-19.1L444.1,153.6z"/>
	<path d="M130.4,130.5c1.4,1.4,3.2,2.1,5.1,2.1c1.9,0,3.8-0.8,5.1-2.1l29.4-29.4c1.4-1.4,2.1-3.2,2.1-5.1c0-1.9-0.8-3.8-2.1-5.1l0,0
		l-29.4-29.4c-1.4-1.4-3.2-2.1-5.1-2.1c-1.9,0-3.8,0.8-5.1,2.1L101,90.9c-1.3,1.3-2.1,3.2-2.1,5.1c0,1.9,0.8,3.8,2.1,5.1
		L130.4,130.5z M135.5,76.9L154.7,96l-19.1,19.1L116.4,96L135.5,76.9z"/>
	<path d="M757,399.2L757,399.2c-1.1-1.6-2.7-2.7-4.6-3c-1.9-0.4-3.8,0-5.4,1.1c-1.6,1.1-2.7,2.7-3,4.6c-0.4,1.9,0,3.8,1.1,5.4
		c23.2,33.9,35.5,73.7,35.5,115c0,112.4-91.4,203.8-203.8,203.8c-112.4,0-203.8-91.4-203.8-203.8c0-51.9,19.6-101.3,55.2-139.3
		l4.7-5l3.3,6c6.3,11.4,11.5,23.5,15.4,35.9l0.8,2.5l-1.6,2.1c-22,28.2-33.6,62.1-33.6,97.8c0,88.1,71.6,159.7,159.7,159.7
		c88.1,0,159.7-71.6,159.7-159.7c0-88.1-71.6-159.7-159.7-159.7c-20.4,0-40.2,3.8-59,11.3l-4.5,1.8l-1.9-4.4
		c-4.4-10.1-9.6-20.2-15.4-29.9l-3-4.9l5.3-2.2c12.7-5.3,26-9.4,39.6-12l2.3-0.4l28.7,23.1c2.1,1.7,4.8,2.7,7.6,2.7h0.6
		c2.8,0,5.4-0.9,7.6-2.7l28.7-23.1l2.3,0.4c37.2,7.2,71.6,24.6,99.5,50.4c2.9,2.7,7.5,2.5,10.2-0.4c2.7-2.9,2.5-7.5-0.4-10.2
		c-24.9-23-55.1-40.1-87.5-49.5l-9-2.6l7.2-6c9.7-8.2,15.2-20.1,15.2-32.8c0-23.7-19.3-42.9-42.9-42.9c-10.2,0-20.2,3.7-27.9,10.3
		l-3.3,2.8l-3.3-2.8c-7.7-6.6-17.7-10.3-27.9-10.3c-23.7,0-42.9,19.3-42.9,42.9c0,12.7,5.6,24.6,15.3,32.8l7.2,6l-9,2.6
		c-9.3,2.7-18.7,6.1-27.7,10.1l-3.7,1.6l-2.4-3.3c-36.4-49.8-89.1-85.4-148.4-100.5l-9.7-2.5l13.5-10.8
		c12.5-9.7,19.6-24.2,19.6-39.9c0-27.8-22.6-50.5-50.5-50.5c-12.8,0-25,4.8-34.3,13.5l-3.4,3.2l-3.4-3.2
		c-9.4-8.7-21.5-13.5-34.3-13.5c-27.8,0-50.5,22.6-50.5,50.5c0,15.7,7.1,30.2,19.5,39.9l13.6,10.9l-9.7,2.5
		c-55.9,14.2-106.5,47.1-142.5,92.6C24.6,360.2,5,416.7,5,476.6c0,63.6,22.9,125.1,64.6,173.1c1.4,1.6,3.4,2.5,5.5,2.5
		c1.7,0,3.4-0.6,4.7-1.8c1.5-1.3,2.3-3,2.5-5c0.1-1.9-0.5-3.8-1.8-5.3c-39.4-45.3-61.1-103.4-61.1-163.6
		c0-59.2,21.2-116.6,59.6-161.6c38-44.6,90.4-74.5,147.7-84.3l2.2-0.4l31.4,25.2c2.3,1.9,5.2,2.9,8.2,2.9h0.8c3,0,5.9-1,8.2-2.9
		l31.4-25.2l2.2,0.4c57.3,9.8,109.8,39.8,147.7,84.3c38.4,45.1,59.6,102.5,59.6,161.6c0,50.6-15,99.2-43.4,140.7l-3.6,5.3l-4.2-4.8
		c-8.6-9.8-15.8-20.7-21.4-32.4l-1.2-2.4l1.4-2.3c18.6-31.5,28.4-67.4,28.4-104c0-69.6-34.9-133.9-93.4-172.1
		c-1.6-1.1-3.6-1.4-5.5-1c-1.9,0.4-3.5,1.5-4.6,3.1c-2.2,3.3-1.2,7.8,2.1,10c18.9,12.4,35.3,27.7,48.8,45.7l2.6,3.4l-3,3.1
		c-40.8,41.2-63.2,95.7-63.2,153.5c0,35.3,8.7,70.5,25.2,101.6l2,3.8l-3.5,2.6c-32.6,24-72.7,37.2-113,37.2
		c-105.3,0-190.9-85.7-190.9-190.9c0-105.3,85.7-190.9,190.9-190.9c20.5,0,40.8,3.3,60.1,9.7c1.8,0.6,3.8,0.5,5.5-0.4
		c1.7-0.9,3-2.4,3.6-4.2c1.3-3.8-0.8-7.9-4.6-9.2c-20.8-6.9-42.6-10.4-64.7-10.4c-113.3,0-205.4,92.2-205.4,205.4
		c0,113.3,92.2,205.4,205.4,205.4c42.6,0,85.1-13.7,119.8-38.6l4.2-3l2.9,4.3c6.2,9.2,13.3,18,20.9,26.2l3.8,4.1l-4.6,3.3
		c-42.4,30.9-94.6,47.9-147,47.9c-55.5,0-108.1-17.8-152-51.6c-1.5-1.2-3.4-1.7-5.4-1.4c-1.9,0.3-3.6,1.2-4.8,2.8
		c-1.2,1.5-1.7,3.4-1.4,5.4c0.3,1.9,1.2,3.6,2.8,4.8c46.5,35.7,102.1,54.6,160.8,54.6c57,0,113.4-18.9,158.9-53.2l3.2-2.4l3.1,2.6
		c39.6,34.2,90.2,53,142.4,53c120.4,0,218.3-97.9,218.3-218.3C795,478.1,781.9,435.5,757,399.2z M517.1,271.1
		c0-15.7,12.8-28.5,28.5-28.5c7.4,0,14.5,2.9,19.8,8c2,1.9,3.7,4.1,5,6.5c1.3,2.3,3.7,3.7,6.3,3.7s5-1.4,6.3-3.7
		c1.3-2.4,3-4.6,5-6.5c5.3-5.2,12.4-8,19.8-8c15.7,0,28.5,12.8,28.5,28.5c0,8.9-4,17.1-11.1,22.5l-0.1,0.1l-48.5,38.9l-48.6-39
		C521.1,288.2,517.1,280,517.1,271.1z M269.1,243.8l-59.7-47.9c-8.9-6.9-14-17.2-14-28.5c0-19.8,16.1-36,36-36
		c9.4,0,18.3,3.6,25.1,10.2c2.5,2.4,4.6,5.2,6.3,8.2c1.3,2.3,3.7,3.7,6.3,3.7c2.6,0,5-1.4,6.3-3.7c1.7-3,3.8-5.8,6.3-8.2
		c6.8-6.6,15.7-10.2,25.1-10.2c19.8,0,36,16.1,36,36c0,11.2-5.1,21.6-14,28.5l0,0L269.1,243.8z M484.9,628.7
		c31.5-44.6,48.2-97.2,48.2-152.1c0-28.3-4.5-56.1-13.3-82.8l-1.5-4.5l4.4-1.8c17.2-6.9,35.4-10.5,54-10.5
		c80.1,0,145.2,65.1,145.2,145.2c0,80.1-65.1,145.2-145.2,145.2c-32.9,0-65.1-11.4-90.8-32.1l-3.7-2.9L484.9,628.7z M458.7,454.5
		c0.9,7.4,1.3,14.8,1.3,22.1c0,26.4-5.4,52-16,76.2l-6.3,14.3l-3.2-15.3c-2-9.7-3.1-19.7-3.1-29.5c0-24.3,6.2-48.4,17.9-69.6
		l7.5-13.7L458.7,454.5z"/>
</g>
</svg>
